/* XPM */
static char * PetalsStudio_linux_xpm[] = {
"48 48 507 2",
"  	c None",
". 	c #A993B2",
"+ 	c #B39CBB",
"@ 	c #9F86A7",
"# 	c #B39CBA",
"$ 	c #B398BA",
"% 	c #B89EBF",
"& 	c #BDA4C3",
"* 	c #C4ABCA",
"= 	c #CBB4D1",
"- 	c #D1BCD8",
"; 	c #D3BFDA",
"> 	c #D3BEDA",
", 	c #D2BCD8",
"' 	c #CAB4D2",
") 	c #BBA5C4",
"! 	c #917E9F",
"~ 	c #826A92",
"{ 	c #B8A5C3",
"] 	c #D0BAD7",
"^ 	c #D3BDD8",
"/ 	c #D3BCD8",
"( 	c #D2BBD7",
"_ 	c #D1BAD7",
": 	c #CDB8D2",
"< 	c #A190AA",
"[ 	c #7F628D",
"} 	c #BFAFCC",
"| 	c #C7B2D0",
"1 	c #C9B0D0",
"2 	c #C9AFD0",
"3 	c #C9AECF",
"4 	c #C8AECF",
"5 	c #C8ADCF",
"6 	c #C7ADCE",
"7 	c #C7ACCD",
"8 	c #C3AAC9",
"9 	c #9985A2",
"0 	c #684F76",
"a 	c #B8A2C3",
"b 	c #BBA4C7",
"c 	c #BDA3C8",
"d 	c #BEA1C7",
"e 	c #BEA1C6",
"f 	c #BEA0C6",
"g 	c #BE9FC6",
"h 	c #BE9FC5",
"i 	c #BC9EC4",
"j 	c #B89CBF",
"k 	c #907A9A",
"l 	c #442F54",
"m 	c #A689B0",
"n 	c #B293BB",
"o 	c #B394BD",
"p 	c #B494BE",
"q 	c #B593BE",
"r 	c #B492BD",
"s 	c #B491BD",
"t 	c #B491BC",
"u 	c #B391BC",
"v 	c #B390BB",
"w 	c #AD8EB6",
"x 	c #897095",
"y 	c #755B81",
"z 	c #A583AE",
"A 	c #A984B2",
"B 	c #AB85B4",
"C 	c #AB84B4",
"D 	c #AA84B4",
"E 	c #AA84B3",
"F 	c #A984B3",
"G 	c #A883B2",
"H 	c #A380AC",
"I 	c #82668D",
"J 	c #362546",
"K 	c #95739F",
"L 	c #9A75A4",
"M 	c #9D76A7",
"N 	c #A077AA",
"O 	c #A277AB",
"P 	c #A177AB",
"Q 	c #A176AB",
"R 	c #A076AA",
"S 	c #A075AA",
"T 	c #9E74A8",
"U 	c #9972A3",
"V 	c #7A5B86",
"W 	c #4F385D",
"X 	c #8D6697",
"Y 	c #91679C",
"Z 	c #94689E",
"` 	c #9669A0",
" .	c #9869A1",
"..	c #9969A2",
"+.	c #9869A2",
"@.	c #9769A1",
"#.	c #9768A1",
"$.	c #9768A0",
"%.	c #9767A0",
"&.	c #9667A0",
"*.	c #93669D",
"=.	c #8F6498",
"-.	c #745180",
";.	c #573A65",
">.	c #865990",
",.	c #8A5A94",
"'.	c #8C5B96",
").	c #8E5C98",
"!.	c #8F5C99",
"~.	c #8E5B98",
"{.	c #8D5B98",
"].	c #8D5B97",
"^.	c #8D5A97",
"/.	c #8C5A96",
"(.	c #895893",
"_.	c #7F508A",
":.	c #4F285F",
"<.	c #623C6F",
"[.	c #7F4C89",
"}.	c #834E8D",
"|.	c #854F8F",
"1.	c #864F90",
"2.	c #864E8F",
"3.	c #854E8F",
"4.	c #844E8F",
"5.	c #844D8F",
"6.	c #834D8E",
"7.	c #784184",
"8.	c #59256A",
"9.	c #451D56",
"0.	c #63366F",
"a.	c #774081",
"b.	c #7B4185",
"c.	c #7D4388",
"d.	c #7D4288",
"e.	c #7D4188",
"f.	c #7C4188",
"g.	c #7C4087",
"h.	c #7A3B87",
"i.	c #723281",
"j.	c #642774",
"k.	c #542266",
"l.	c #431D54",
"m.	c #5C2D69",
"n.	c #6E347A",
"o.	c #72357E",
"p.	c #753781",
"q.	c #753681",
"r.	c #763683",
"s.	c #763484",
"t.	c #763384",
"u.	c #763185",
"v.	c #763085",
"w.	c #762E86",
"x.	c #732E84",
"y.	c #6A2B7B",
"z.	c #5F2670",
"A.	c #522263",
"B.	c #421E53",
"C.	c #542464",
"D.	c #652874",
"E.	c #6A2A79",
"F.	c #702D7F",
"G.	c #742E83",
"H.	c #752E85",
"I.	c #702D80",
"J.	c #662A77",
"K.	c #5A266C",
"L.	c #4D205E",
"M.	c #3F1E51",
"N.	c #461E57",
"O.	c #5D236C",
"P.	c #6A2779",
"Q.	c #732C82",
"R.	c #712E82",
"S.	c #6B2C7C",
"T.	c #622973",
"U.	c #562467",
"V.	c #491E5A",
"W.	c #3D1E4F",
"X.	c #B13F22",
"Y.	c #B24127",
"Z.	c #AE3C29",
"`.	c #A12F25",
" +	c #381D49",
".+	c #552165",
"++	c #662776",
"@+	c #712B80",
"#+	c #762E85",
"$+	c #742E84",
"%+	c #722E83",
"&+	c #6F2D80",
"*+	c #6A2C7C",
"=+	c #652B77",
"-+	c #5D276F",
";+	c #512263",
">+	c #431C55",
",+	c #361F48",
"'+	c #EFB28F",
")+	c #F7D0B7",
"!+	c #F6CFB8",
"~+	c #F3C8B1",
"{+	c #E6AC98",
"]+	c #F0BAA8",
"^+	c #331D44",
"/+	c #4E1F5F",
"(+	c #602671",
"_+	c #6C2B7C",
":+	c #732E83",
"<+	c #702D81",
"[+	c #6C2D7E",
"}+	c #672C7A",
"|+	c #632A76",
"1+	c #602973",
"2+	c #59256B",
"3+	c #4A1F5B",
"4+	c #3C1B4D",
"5+	c #311E43",
"6+	c #EEB18E",
"7+	c #F7CFB6",
"8+	c #F5CEB7",
"9+	c #F4CDB8",
"0+	c #F2CDB9",
"a+	c #EFC0AA",
"b+	c #662A78",
"c+	c #6D2D7F",
"d+	c #6E2D80",
"e+	c #6F2D81",
"f+	c #702E82",
"g+	c #702D82",
"h+	c #652B78",
"i+	c #602974",
"j+	c #5E2871",
"k+	c #5A276D",
"l+	c #522364",
"m+	c #441C55",
"n+	c #341C46",
"o+	c #EBA780",
"p+	c #F5C4A2",
"q+	c #F5C3A3",
"r+	c #F3C3A4",
"s+	c #F1C2A4",
"t+	c #F0C2A5",
"u+	c #DEA58B",
"v+	c #371C49",
"w+	c #4E2160",
"x+	c #5E2870",
"y+	c #692C7B",
"z+	c #6B2D7D",
"A+	c #6B2D7E",
"B+	c #6C2D7F",
"C+	c #682C7B",
"D+	c #632B77",
"E+	c #5F2872",
"F+	c #5A266D",
"G+	c #56256A",
"H+	c #522365",
"I+	c #3D1C4E",
"J+	c #2F1D40",
"K+	c #E89A6D",
"L+	c #F3B489",
"M+	c #F2B489",
"N+	c #F1B38A",
"O+	c #F0B38A",
"P+	c #EEB28B",
"Q+	c #EBB18C",
"R+	c #C27A67",
"S+	c #3E1C4F",
"T+	c #502161",
"U+	c #5D2870",
"V+	c #622A75",
"W+	c #662C79",
"X+	c #662B79",
"Y+	c #642B77",
"Z+	c #612A75",
"`+	c #5C286F",
" @	c #58256A",
".@	c #4E2261",
"+@	c #481E5A",
"@@	c #421C53",
"#@	c #351D46",
"$@	c #E18A5A",
"%@	c #F1A46E",
"&@	c #F0A36F",
"*@	c #EEA270",
"=@	c #EDA270",
"-@	c #ECA270",
";@	c #EAA271",
">@	c #E19A73",
",@	c #973631",
"'@	c #301D41",
")@	c #3F1C51",
"!@	c #4C205E",
"~@	c #552468",
"{@	c #5B276D",
"]@	c #5C276F",
"^@	c #59266B",
"/@	c #572569",
"(@	c #542466",
"_@	c #4F2261",
":@	c #491F5C",
"<@	c #461D58",
"[@	c #451F56",
"}@	c #391E4A",
"|@	c #DF7E46",
"1@	c #ED9355",
"2@	c #EC9256",
"3@	c #EA9157",
"4@	c #E99157",
"5@	c #E89157",
"6@	c #E48E58",
"7@	c #AF503B",
"8@	c #2D1D3E",
"9@	c #4C205D",
"0@	c #502262",
"a@	c #4A1F5C",
"b@	c #491E5B",
"c@	c #461D57",
"d@	c #471F58",
"e@	c #50295F",
"f@	c #563863",
"g@	c #342444",
"h@	c #DF6B29",
"i@	c #EA7E37",
"j@	c #EB823C",
"k@	c #EA823C",
"l@	c #E9813D",
"m@	c #E6803D",
"n@	c #E6803E",
"o@	c #E5803E",
"p@	c #E4803E",
"q@	c #BE5935",
"r@	c #2B1D3C",
"s@	c #381C49",
"t@	c #401C51",
"u@	c #441D55",
"v@	c #451D57",
"w@	c #4A225A",
"x@	c #4F285E",
"y@	c #583367",
"z@	c #7A5A87",
"A@	c #987EA5",
"B@	c #D35717",
"C@	c #E36213",
"D@	c #E56616",
"E@	c #E66A1C",
"F@	c #E66B1E",
"G@	c #E56718",
"H@	c #E56515",
"I@	c #E46313",
"J@	c #E2661A",
"K@	c #DB631D",
"L@	c #DC6722",
"M@	c #DE6A25",
"N@	c #E06E27",
"O@	c #CA5B26",
"P@	c #312041",
"Q@	c #3E284D",
"R@	c #4F335C",
"S@	c #5D3E6A",
"T@	c #6C4C79",
"U@	c #7B5C88",
"V@	c #8B6F98",
"W@	c #9A80A7",
"X@	c #A28BB0",
"Y@	c #CC5419",
"Z@	c #E06214",
"`@	c #E46211",
" #	c #E16113",
".#	c #D95E17",
"+#	c #D65C18",
"@#	c #D55C18",
"##	c #D25C19",
"$#	c #C14F1C",
"%#	c #BF4D1B",
"&#	c #DD6114",
"*#	c #D25C1A",
"=#	c #B7481D",
"-#	c #AE401D",
";#	c #D75F17",
">#	c #E26212",
",#	c #E36212",
"'#	c #D45C18",
")#	c #D15C1A",
"!#	c #A3361D",
"~#	c #A3371E",
"{#	c #D15D19",
"]#	c #DC6115",
"^#	c #E06213",
"/#	c #E16213",
"(#	c #E46212",
"_#	c #D85D17",
":#	c #D55C19",
"<#	c #D35C19",
"[#	c #CA581B",
"}#	c #93281F",
"|#	c #7F3D7B",
"1#	c #AFAFB0",
"2#	c #D1D1D1",
"3#	c #CCCCCC",
"4#	c #C6551C",
"5#	c #D65F18",
"6#	c #DB6115",
"7#	c #DF6214",
"8#	c #E16212",
"9#	c #DF6213",
"0#	c #DD6014",
"a#	c #D65D17",
"b#	c #CF5B1A",
"c#	c #B2431E",
"d#	c #7E3B7C",
"e#	c #7E3C7C",
"f#	c #ACABAB",
"g#	c #C4C3C3",
"h#	c #BDBDBC",
"i#	c #AA3B1E",
"j#	c #CB591B",
"k#	c #D35E18",
"l#	c #D65F17",
"m#	c #D86017",
"n#	c #DA6116",
"o#	c #DD6115",
"p#	c #DE6114",
"q#	c #DB6015",
"r#	c #D75F16",
"s#	c #D35D18",
"t#	c #D15C19",
"u#	c #C04F1D",
"v#	c #8D231E",
"w#	c #7C3A7D",
"x#	c #7D3B7C",
"y#	c #7D3A7C",
"z#	c #999695",
"A#	c #989695",
"B#	c #9D9A99",
"C#	c #838181",
"D#	c #AB3D1F",
"E#	c #C0501D",
"F#	c #CF5C1A",
"G#	c #D35E19",
"H#	c #D45E18",
"I#	c #D25E19",
"J#	c #D05D1A",
"K#	c #D05E1C",
"L#	c #D05F20",
"M#	c #C35223",
"N#	c #962A1F",
"O#	c #7B387D",
"P#	c #7B397D",
"Q#	c #656564",
"R#	c #6E6E6E",
"S#	c #727171",
"T#	c #777676",
"U#	c #787776",
"V#	c #959393",
"W#	c #8F241E",
"X#	c #A2351F",
"Y#	c #B24420",
"Z#	c #BF5327",
"`#	c #CE6634",
" $	c #D56F3A",
".$	c #D87341",
"+$	c #D7713C",
"@$	c #DB794A",
"#$	c #DB7550",
"$$	c #B4493A",
"%$	c #79367D",
"&$	c #79377D",
"*$	c #7A377D",
"=$	c #5B5B5B",
"-$	c #717070",
";$	c #979696",
">$	c #8F2724",
",$	c #A94938",
"'$	c #CB7864",
")$	c #E59C88",
"!$	c #ECA592",
"~$	c #EEA592",
"{$	c #EFA292",
"]$	c #77367E",
"^$	c #78367E",
"/$	c #77357E",
"($	c #606060",
"_$	c #6D6C6C",
":$	c #6E6D6D",
"<$	c #6F6E6E",
"[$	c #76347F",
"}$	c #77347F",
"|$	c #77347E",
"1$	c #74327E",
"2$	c #74327F",
"3$	c #71317C",
"4$	c #70317C",
"5$	c #71327C",
"6$	c #6D3079",
"7$	c #6C3079",
"8$	c #6E307A",
"9$	c #6A2F77",
"0$	c #662E74",
"a$	c #662E75",
"b$	c #672E75",
"c$	c #622C72",
"d$	c #632C72",
"e$	c #5F2B70",
"f$	c #5B2A6E",
"g$	c #5C2A6E",
"h$	c #58296B",
"                                                                                                ",
"                                                                                                ",
"                                                                                                ",
"                                                          . + @ # $ % & * = - ; > , ' ) !       ",
"                                                    ~ { ] ^ / / / / / / / / / / ( ( _ : <       ",
"                                                  [ } | 1 2 2 2 3 3 4 4 4 4 5 5 6 6 7 8 9       ",
"                                                0 a b c d d d d e f f f f g g g h h i j k       ",
"                                              l m n o p q q q q r r r r r r s t u u v w x       ",
"                                              y z A B B B B B B C C D D D D E E F F G H I       ",
"                                            J K L M N O O O O P P Q Q Q Q R R S S S T U V       ",
"                                            W X Y Z `  ...+.+. . .@.@.#.#.$.$.%.%.&.*.=.-.      ",
"                                            ;.>.,.'.).).!.).).~.~.~.~.{.{.{.].^.^./.(._.:.      ",
"                                            <.[.}.|.1.1.1.2.2.2.3.3.3.3.3.3.4.5.5.6.7.8.9.      ",
"                                            0.a.b.c.c.d.d.d.d.d.d.d.d.e.f.f.f.g.h.i.j.k.l.      ",
"                                            m.n.o.p.p.p.q.r.r.s.s.s.t.t.t.u.v.w.x.y.z.A.B.      ",
"                                            C.D.E.F.G.H.w.w.w.w.w.w.w.w.w.w.w.H.I.J.K.L.M.      ",
"                                            N.O.P.Q.w.w.w.w.w.w.w.w.w.w.w.w.H.R.S.T.U.V.W.      ",
"              X.Y.Z.`.                       +.+++@+#+w.w.w.w.w.w.w.w.H.$+%+&+*+=+-+;+>+,+      ",
"      '+)+)+)+)+)+)+)+)+!+~+{+]+            ^+/+(+_+:+x.$+$+$+$+H.$+x.%+<+[+}+|+1+2+3+4+5+      ",
"      6+7+7+7+7+7+7+7+7+7+8+9+0+a+            l.2+b+c+d+e+e+e+f+R.g+e+c+*+h+i+j+k+l+m+n+        ",
"      o+p+p+p+p+p+p+p+p+p+q+r+s+t+u+          v+w+x+}+y+*+z+A+[+B+z+*+C+D+E+F+G+H+V.I+J+        ",
"      K+L+L+L+L+L+L+L+L+L+M+N+O+P+Q+R+          S+T+U+V+h+W+W+}+}+X+Y+Z+`+ @H+.@+@@@#@          ",
"      $@%@%@%@%@%@%@%@%@%@&@*@=@-@;@>@,@        '@)@!@~@{@x+U+E+j+]@^@/@(@_@:@<@[@}@            ",
"      |@1@1@1@1@1@1@1@1@1@1@2@3@4@5@6@7@          8@ +9.9@0@;+l+0@w+!@a@b@c@d@e@f@g@            ",
"      h@i@j@j@j@j@j@j@j@j@k@l@m@n@o@p@q@            r@J+s@t@u@v@c@N.N.w@x@y@z@A@                ",
"      B@C@D@E@F@F@F@G@G@H@I@J@K@L@M@N@O@                  P@Q@R@S@T@U@V@W@X@                    ",
"      Y@Z@`@`@`@`@`@`@`@`@`@ #.#+#@###$#                                                        ",
"      %#&#`@`@`@`@`@`@`@`@`@ #.#+#@#*#=#                                                        ",
"      -#;#>#,#`@`@`@`@`@`@`@ #.#+#'#)#!#                                                        ",
"      ~#{#]#^#/#,#,#(#(#(#(# #_#:#<#[#}#          |#|#|#|#|#|#              1#2#3#              ",
"        4#5#6#]#7#/#>#,#8#9#0#a###b#c#        d#e#e#e#e#e#e#e#e#          f#g#g#g#h#            ",
"        i#j#k#l#m#n#o#p#q#r#s#t#b#u#v#        w#w#x#        y#y#y#        z#A#B#B#B#C#          ",
"          D#E#[#F#G#H#k#I#J#K#L#M#N#        O#O#O#            P#P#O#      Q#R#S#T#U#V#          ",
"            W#X#Y#Z#`# $.$+$@$#$$$          %$&$                *$*$      =$R#-$-$-$;$          ",
"                >$,$'$)$!$~${$              ]$^$                ^$/$        ($_$:$:$<$          ",
"                                            [$[$                }$|$                            ",
"                                            1$1$                2$2$                            ",
"                                            3$3$              4$5$5$                            ",
"                                            6$7$            6$8$8$                              ",
"                                            9$9$9$9$9$9$9$9$9$9$                                ",
"                                            0$0$a$a$a$a$b$b$                                    ",
"                                            c$d$                                                ",
"                                            e$e$                                                ",
"                                            f$g$                                                ",
"                                            h$h$                                                ",
"                                                                                                ",
"                                                                                                ",
"                                                                                                "};
